<svg width="839" height="582" xmlns="http://www.w3.org/2000/svg" xmlns:xlink="http://www.w3.org/1999/xlink" xml:space="preserve" overflow="hidden"><defs><clipPath id="clip0"><rect x="2951" y="476" width="839" height="582"/></clipPath><linearGradient x1="219.658" y1="414.611" x2="219.658" y2="-1.13757" gradientUnits="userSpaceOnUse" spreadMethod="reflect" id="fill1"><stop offset="0" stop-color="#2A69A2" stop-opacity="1"/><stop offset="0.48" stop-color="#609ED6" stop-opacity="1"/><stop offset="1" stop-color="#9DC3E6" stop-opacity="1"/></linearGradient><linearGradient x1="3164.5" y1="548.5" x2="3592.5" y2="977.499" gradientUnits="userSpaceOnUse" spreadMethod="reflect" id="fill2"><stop offset="0" stop-color="#1D64C8" stop-opacity="1"/><stop offset="0.75" stop-color="#091F3E" stop-opacity="1"/><stop offset="1" stop-color="#091F3E" stop-opacity="1"/></linearGradient><radialGradient cx="43060" cy="85604" r="95823.8" fx="86120" fy="0" gradientUnits="userSpaceOnUse" spreadMethod="pad" id="fill3" gradientTransform="scale(0.000360892 0.000360892)"><stop offset="0" stop-color="#091F3E" stop-opacity="1"/><stop offset="0.24" stop-color="#091F3E" stop-opacity="1"/><stop offset="0.42" stop-color="#21527F" stop-opacity="1"/><stop offset="1" stop-color="#9DC3E6" stop-opacity="1"/></radialGradient><radialGradient cx="43271" cy="85604" r="95918.8" fx="86542" fy="0" gradientUnits="userSpaceOnUse" spreadMethod="pad" id="fill4" gradientTransform="matrix(0.000360892 0 0 0.000360892 3395.5 802.5)"><stop offset="0" stop-color="#091F3E" stop-opacity="1"/><stop offset="0.24" stop-color="#091F3E" stop-opacity="1"/><stop offset="0.42" stop-color="#21527F" stop-opacity="1"/><stop offset="1" stop-color="#9DC3E6" stop-opacity="1"/></radialGradient><radialGradient cx="99000" cy="0.5" r="99000" fx="198000" fy="0" gradientUnits="userSpaceOnUse" spreadMethod="pad" id="fill5" gradientTransform="scale(0.000360892 0.000360892)"><stop offset="0" stop-color="#091F3E" stop-opacity="1"/><stop offset="0.24" stop-color="#091F3E" stop-opacity="1"/><stop offset="0.42" stop-color="#21527F" stop-opacity="1"/><stop offset="1" stop-color="#9DC3E6" stop-opacity="1"/></radialGradient><radialGradient cx="99000" cy="0.5" r="99000" fx="198000" fy="0" gradientUnits="userSpaceOnUse" spreadMethod="pad" id="fill6" gradientTransform="matrix(0.000360892 0 0 0.000360892 3331.5 904.5)"><stop offset="0" stop-color="#091F3E" stop-opacity="1"/><stop offset="0.24" stop-color="#091F3E" stop-opacity="1"/><stop offset="0.42" stop-color="#21527F" stop-opacity="1"/><stop offset="1" stop-color="#9DC3E6" stop-opacity="1"/></radialGradient><radialGradient cx="43271" cy="85604" r="95918.8" fx="86542" fy="0" gradientUnits="userSpaceOnUse" spreadMethod="pad" id="fill7" gradientTransform="matrix(0.000360892 0 0 0.000360892 3238.5 801.5)"><stop offset="0" stop-color="#091F3E" stop-opacity="1"/><stop offset="0.24" stop-color="#091F3E" stop-opacity="1"/><stop offset="0.42" stop-color="#21527F" stop-opacity="1"/><stop offset="1" stop-color="#9DC3E6" stop-opacity="1"/></radialGradient><radialGradient cx="43060" cy="85604" r="95823.8" fx="86120" fy="0" gradientUnits="userSpaceOnUse" spreadMethod="pad" id="fill8" gradientTransform="scale(0.000360892 0.000360892)"><stop offset="0" stop-color="#091F3E" stop-opacity="1"/><stop offset="0.24" stop-color="#091F3E" stop-opacity="1"/><stop offset="0.42" stop-color="#21527F" stop-opacity="1"/><stop offset="1" stop-color="#9DC3E6" stop-opacity="1"/></radialGradient><radialGradient cx="43271" cy="85604" r="95918.8" fx="86542" fy="0" gradientUnits="userSpaceOnUse" spreadMethod="pad" id="fill9" gradientTransform="matrix(0.000360892 0 0 0.000360892 3318.5 666.5)"><stop offset="0" stop-color="#091F3E" stop-opacity="1"/><stop offset="0.24" stop-color="#091F3E" stop-opacity="1"/><stop offset="0.42" stop-color="#21527F" stop-opacity="1"/><stop offset="1" stop-color="#9DC3E6" stop-opacity="1"/></radialGradient><linearGradient x1="206.478" y1="414.092" x2="206.478" y2="-1.13615" gradientUnits="userSpaceOnUse" spreadMethod="reflect" id="fill10"><stop offset="0" stop-color="#2A69A2" stop-opacity="1"/><stop offset="0.48" stop-color="#609ED6" stop-opacity="1"/><stop offset="1" stop-color="#9DC3E6" stop-opacity="1"/></linearGradient></defs><g clip-path="url(#clip0)" transform="translate(-2951 -476)"><path d="M74.0695 414.098C72.1744 413.416 70.5602 412.149 69.7882 410.784 69.2267 409.809-0.888045 226.858-1.16877 225.721-1.58986 223.804 1.42795 219.644 3.81435 218.799 4.27042 218.637 43.3986 207.978 90.7734 195.11 147.553 179.642 177.382 171.68 178.434 171.68 182.751 171.68 186.33 175.58 185.663 179.544 185.523 180.324 177.697 196.312 167.731 216.265 157.975 235.697 150.01 251.815 150.01 252.075 150.01 252.367 150.571 252.725 151.518 252.952 152.326 253.147 160.888 255.292 170.538 257.697 188.927 262.279 204.017 265.853 212.299 267.543 248.725 275.049 274.693 277.161 295.819 274.334 322.313 270.792 339.684 259.906 349.65 240.571 354.283 231.57 356.985 222.081 358.704 208.726 359.582 202.031 359.582 180.552 358.704 172.005 354.388 129.631 340.491 80.0426 314.944 15.8637 311.54 7.38241 311.189 5.79009 312.137 3.5153 312.768 1.98817 314.874 0.200891 316.944-0.579167 318.839-1.29404 318.91-1.29404 320.804-0.74154 321.998-0.384202 323.296 0.298275 324.103 1.01315 326.279 2.963 345.439 31.4941 358.634 52.4214 408.114 131.061 434.609 193.453 439.487 242.684 440.75 255.585 440.821 258.119 439.908 267.38 438.329 283.238 435.136 294.514 429.03 305.725 413.203 334.711 381.444 351.902 334.245 357.036 323.331 358.206 319.611 358.368 301.784 358.368 283.255 358.336 278.272 358.108 262.13 356.581 222.019 352.714 175.416 343.355 128.006 329.577 123.129 328.18 118.882 327.01 118.602 327.01 118.321 327.01 117.935 327.302 117.759 327.627 117.549 327.985 109.723 346.735 100.354 369.319 90.9489 391.871 82.8776 410.914 82.3863 411.564 81.474 412.831 78.8069 414.261 76.8418 414.586 76.2099 414.683 75.087 414.488 74.0695 414.098Z" fill="url(#fill1)" fill-rule="evenodd" transform="matrix(-0.913545 -0.406737 -0.406737 0.913545 3470.03 709.483)"/><path d="M3164 763C3164 644.811 3260.03 549 3378.5 549 3496.96 549 3593 644.811 3593 763 3593 881.189 3496.96 977 3378.5 977 3260.03 977 3164 881.189 3164 763Z" fill="url(#fill2)" fill-rule="evenodd"/><path d="M3397.08 765.448C3396.76 780.105 3384.62 791.727 3369.97 791.408 3355.31 791.089 3343.69 778.95 3344.01 764.294 3344.32 749.637 3356.46 738.015 3371.12 738.334 3385.78 738.653 3397.4 750.792 3397.08 765.448Z" fill="#FFFFFF" fill-rule="evenodd" fill-opacity="1"/><path d="M3472.57 904.752C3472.25 919.408 3460.11 931.031 3445.45 930.712 3430.8 930.393 3419.17 918.253 3419.49 903.597 3419.81 888.941 3431.95 877.318 3446.61 877.637 3461.26 877.956 3472.89 890.096 3472.57 904.752Z" fill="#FFFFFF" fill-rule="evenodd" fill-opacity="1"/><path d="M3240.82 769.197C3240.5 783.853 3228.36 795.475 3213.71 795.157 3199.05 794.838 3187.43 782.698 3187.75 768.042 3188.07 753.386 3200.21 741.763 3214.86 742.082 3229.52 742.401 3241.14 754.54 3240.82 769.197Z" fill="#FFFFFF" fill-rule="evenodd" fill-opacity="1"/><path d="M0 0 31.0801 61.7877" stroke="#FFFFFF" stroke-width="9.16667" stroke-linecap="round" stroke-linejoin="round" stroke-miterlimit="10" stroke-opacity="1" fill="url(#fill3)" fill-rule="evenodd" transform="matrix(1 0 0 -1 3315.5 866.288)"/><path d="M3395.5 802.5 3426.73 864.288" stroke="#FFFFFF" stroke-width="9.16667" stroke-linecap="round" stroke-linejoin="round" stroke-miterlimit="10" stroke-opacity="1" fill="url(#fill4)" fill-rule="evenodd"/><path d="M0 0 71.4567 0.000360892" stroke="#FFFFFF" stroke-width="9.16667" stroke-linecap="round" stroke-linejoin="round" stroke-miterlimit="10" stroke-opacity="1" fill="url(#fill5)" fill-rule="evenodd" transform="matrix(-1 0 0 1 3327.96 765.5)"/><path d="M3268.76 890.538C3276.29 877.961 3292.59 873.87 3305.17 881.401 3317.74 888.933 3321.83 905.234 3314.3 917.811 3306.77 930.388 3290.47 934.479 3277.89 926.947 3265.32 919.416 3261.23 903.115 3268.76 890.538Z" fill="#FFFFFF" fill-rule="evenodd" fill-opacity="1"/><path d="M3331.5 904.5 3402.96 904.5" stroke="#FFFFFF" stroke-width="9.16667" stroke-linecap="round" stroke-linejoin="round" stroke-miterlimit="10" stroke-opacity="1" fill="url(#fill6)" fill-rule="evenodd"/><path d="M3238.5 801.5 3269.73 863.288" stroke="#FFFFFF" stroke-width="9.16667" stroke-linecap="round" stroke-linejoin="round" stroke-miterlimit="10" stroke-opacity="1" fill="url(#fill7)" fill-rule="evenodd"/><path d="M3269.8 616.377C3277.33 603.8 3293.63 599.71 3306.21 607.241 3318.78 614.772 3322.87 631.073 3315.34 643.65 3307.81 656.227 3291.51 660.318 3278.93 652.787 3266.36 645.256 3262.27 628.955 3269.8 616.377Z" fill="#FFFFFF" fill-rule="evenodd" fill-opacity="1"/><path d="M0 0 31.0801 61.7877" stroke="#FFFFFF" stroke-width="9.16667" stroke-linecap="round" stroke-linejoin="round" stroke-miterlimit="10" stroke-opacity="1" fill="url(#fill8)" fill-rule="evenodd" transform="matrix(1 0 0 -1 3234.5 727.288)"/><path d="M3318.5 666.5 3349.73 728.288" stroke="#FFFFFF" stroke-width="9.16667" stroke-linecap="round" stroke-linejoin="round" stroke-miterlimit="10" stroke-opacity="1" fill="url(#fill9)" fill-rule="evenodd"/><path d="M69.6253 413.581C67.8439 412.899 66.3266 411.633 65.6009 410.27 65.0731 409.297-0.834762 226.575-1.09865 225.439-1.49447 223.524 1.34228 219.37 3.58549 218.526 4.0142 218.364 40.7947 207.718 85.327 194.866 138.7 179.418 166.739 171.466 167.728 171.466 171.786 171.466 175.15 175.361 174.524 179.32 174.392 180.099 167.036 196.067 157.667 215.994 148.497 235.402 141.009 251.5 141.009 251.76 141.009 252.052 141.537 252.409 142.427 252.636 143.186 252.831 151.235 254.973 160.306 257.374 177.591 261.951 191.776 265.521 199.561 267.208 233.801 274.705 258.211 276.815 278.07 273.991 302.975 270.454 319.303 259.581 328.671 240.271 333.026 231.281 335.566 221.804 337.182 208.465 338.007 201.779 338.007 180.326 337.182 171.79 333.125 129.469 320.062 79.9426 296.047 15.8439 292.848 7.37318 292.518 5.78286 293.408 3.51091 294.002 1.98569 295.981 0.20064 297.928-0.578444 299.709-1.29242 299.775-1.29242 301.556-0.740613 302.678-0.383722 303.898 0.297902 304.657 1.01188 306.702 2.9593 324.713 31.4547 337.116 52.3559 383.628 130.897 408.533 193.211 413.118 242.38 414.305 255.265 414.371 257.796 413.514 267.046 412.029 282.884 409.027 294.146 403.288 305.343 388.411 334.293 358.558 351.462 314.19 356.59 303.931 357.758 300.435 357.92 283.677 357.92 266.26 357.888 261.576 357.661 246.402 356.135 208.698 352.273 164.891 342.926 120.326 329.165 115.741 327.77 111.749 326.601 111.486 326.601 111.222 326.601 110.859 326.893 110.694 327.218 110.496 327.575 103.14 346.301 94.3325 368.858 85.492 391.382 77.905 410.4 77.4432 411.049 76.5855 412.315 74.0784 413.743 72.2313 414.068 71.6373 414.165 70.5818 413.97 69.6253 413.581Z" fill="url(#fill10)" fill-rule="evenodd" transform="matrix(0.913545 0.406737 0.406737 -0.913545 3295.27 827.64)"/></g></svg>