<svg xmlns="http://www.w3.org/2000/svg" xmlns:xlink="http://www.w3.org/1999/xlink" viewBox="0 0 197.7 73.9"><defs><style>.cls-1{fill:url(#radial-gradient);}.cls-2{opacity:0.9;fill:url(#radial-gradient-2);}.cls-3{fill:url(#radial-gradient-3);}.cls-4{fill:url(#radial-gradient-4);}.cls-5{fill:#41a62a;}.cls-6{fill:#646567;}</style><radialGradient id="radial-gradient" cx="58.19" cy="58.69" r="54.6" gradientUnits="userSpaceOnUse"><stop offset="0" stop-color="#002c0e"/><stop offset="0.24" stop-color="#008132"/><stop offset="0.31" stop-color="#198b2c"/><stop offset="0.47" stop-color="#4da121"/><stop offset="0.61" stop-color="#72b018"/><stop offset="0.73" stop-color="#8aba13"/><stop offset="0.8" stop-color="#92bd11"/><stop offset="0.82" stop-color="#90bc14" stop-opacity="0.96"/><stop offset="0.85" stop-color="#89bb1c" stop-opacity="0.86"/><stop offset="0.89" stop-color="#7eb829" stop-opacity="0.68"/><stop offset="0.93" stop-color="#6fb53b" stop-opacity="0.44"/><stop offset="0.98" stop-color="#5cb052" stop-opacity="0.13"/><stop offset="1" stop-color="#54ae5c" stop-opacity="0"/></radialGradient><radialGradient id="radial-gradient-2" cx="35.02" cy="39.26" r="34.49" gradientUnits="userSpaceOnUse"><stop offset="0.17" stop-color="#bcccd4"/><stop offset="0.46" stop-color="#dfe7eb" stop-opacity="0.95"/><stop offset="0.75" stop-color="#f7f9fa" stop-opacity="0.91"/><stop offset="1" stop-color="#fff" stop-opacity="0.9"/></radialGradient><radialGradient id="radial-gradient-3" cx="14.16" cy="12.1" r="54.32" gradientUnits="userSpaceOnUse"><stop offset="0.01" stop-color="#00315d"/><stop offset="0.32" stop-color="#007ec4"/><stop offset="0.33" stop-color="#0481c5"/><stop offset="0.44" stop-color="#38a2d8"/><stop offset="0.54" stop-color="#5ebae5"/><stop offset="0.61" stop-color="#75c9ed"/><stop offset="0.66" stop-color="#7dcef0"/><stop offset="0.7" stop-color="#7bcdef" stop-opacity="0.97"/><stop offset="0.75" stop-color="#74c9ec" stop-opacity="0.89"/><stop offset="0.81" stop-color="#6ac4e7" stop-opacity="0.76"/><stop offset="0.88" stop-color="#5bbce0" stop-opacity="0.57"/><stop offset="0.96" stop-color="#48b2d8" stop-opacity="0.34"/><stop offset="1" stop-color="#3dacd3" stop-opacity="0.2"/></radialGradient><radialGradient id="radial-gradient-4" cx="34.5" cy="35.96" r="38.23" gradientUnits="userSpaceOnUse"><stop offset="0.26" stop-color="#fff"/><stop offset="0.45" stop-color="#b2e2f6" stop-opacity="0.91"/><stop offset="0.88" stop-color="#009ee0" stop-opacity="0.7"/><stop offset="0.89" stop-color="#13a5e2" stop-opacity="0.74"/><stop offset="0.92" stop-color="#46b8e8" stop-opacity="0.86"/><stop offset="0.95" stop-color="#84d0f0"/></radialGradient></defs><title>SYSTRAN Translate - Neural Machine Translation (NMT)</title><g id="Calque_2" data-name="Calque 2"><g id="Calque_1-2" data-name="Calque 1"><path class="cls-1" d="M69.1,37.6c-4-7.9-18.5,23.8-45.3,23.6-7.9-.1-13.3-2.6-17.3-6.5L4.3,57a38.2,38.2,0,0,0,9.6,10,37.1,37.1,0,0,0,28,6.3c18.7-3.6,25.6-16.7,27.9-22.5C70.7,48,72.3,44,69.1,37.6Z"/><path class="cls-2" d="M62.8,12A46.1,46.1,0,0,0,57,6.9,37.2,37.2,0,0,0,29,.6C10.2,4.2,3.6,17.5,1,23.1c-.9,2.8-1.9,7,1,13,3.9,8,18.2-23.6,45-23.4a27.6,27.6,0,0,1,12.3,2.8Z"/><path class="cls-3" d="M62.8,12A46.1,46.1,0,0,0,57,6.9,37.2,37.2,0,0,0,29,.6C10.2,4.2,3.6,17.5,1,23.1c-.9,2.8-1.9,7,1,13,3.9,8,18.2-23.6,45-23.4a27.6,27.6,0,0,1,12.3,2.8Z"/><path class="cls-4" d="M70.5,41.3C69,35.9,64.9,29.8,52.7,24.1h.1c-.1,0-.1,0-.1-.1-19.2-8.8-37-4.4-41.2-9.4a4.4,4.4,0,0,1-.6-5.4C6.1,13.1,1.9,20.5.7,24a15.1,15.1,0,0,0-.1,8.8c1.5,5.3,5.6,11.4,17.7,17.1h.1c19.4,8.8,37,4.5,41.2,9.4,1.4,1.6,1.9,3.5.8,5,4.9-3.9,9.1-11.6,10.1-15.5A13.7,13.7,0,0,0,70.5,41.3Z"/><path class="cls-5" d="M126.8,40.7h1.4V38.8l2.3-.5v2.4h2.3v1.7h-2.3v4.7c0,1.1.4,1.5,1.6,1.5h.7v1.8h-1.1c-2.7,0-3.5-1.1-3.5-3.3V42.4h-1.4Z"/><path class="cls-5" d="M134.1,50.4V40.7h2.1v1.2a4.4,4.4,0,0,1,3.5-1.4v2.1a4.6,4.6,0,0,0-3.3,1.1v6.7Z"/><path class="cls-5" d="M140.5,47.8c0-1.9,1.4-3,4.4-3h1.2v-.4c0-1.3-.5-1.8-1.9-1.8a3.3,3.3,0,0,0-2.5,1.2L140.5,42a5.5,5.5,0,0,1,4-1.5c2.9,0,3.8,1.5,3.8,3.4v6.5h-2.1V49.3a3.2,3.2,0,0,1-2.7,1.3A2.7,2.7,0,0,1,140.5,47.8Zm5.6-.2V46.3h-1.4c-1.2,0-1.8.5-1.8,1.3s.5,1.2,1.3,1.2A2.2,2.2,0,0,0,146.1,47.6Z"/><path class="cls-5" d="M150.5,50.4V40.7h2.1v1.1a4,4,0,0,1,3-1.3c2.3,0,3.2,1.5,3.2,3.4v6.5h-2.3v-6c0-1.3-.6-1.8-1.5-1.8a2.6,2.6,0,0,0-2.2,1v6.8Z"/><path class="cls-5" d="M167.8,43l-2.1.7a1.7,1.7,0,0,0-1.8-1.3c-.8,0-1.3.4-1.3,1s.5,1,2.1,1.3,3.2,1,3.2,2.8-1.5,3.1-4,3.1-3.5-1.1-3.8-2.9l2-.5a2,2,0,0,0,2,1.5c1,0,1.6-.4,1.6-1.1s-.6-1-1.9-1.2-3.4-.6-3.4-2.8,1.4-3.1,3.7-3.1S167.5,41.7,167.8,43Z"/><path class="cls-5" d="M169.4,50.4V36.3h2.3V50.4Z"/><path class="cls-5" d="M173.4,47.8c0-1.9,1.4-3,4.3-3h1.2v-.4c0-1.3-.5-1.8-1.8-1.8a3,3,0,0,0-2.5,1.2L173.4,42a5.4,5.4,0,0,1,3.9-1.5c3,0,3.9,1.5,3.9,3.4v6.5h-2.1V49.3a3.2,3.2,0,0,1-2.7,1.3A2.7,2.7,0,0,1,173.4,47.8Zm5.5-.2V46.3h-1.3c-1.3,0-1.8.5-1.8,1.3s.5,1.2,1.3,1.2A2,2,0,0,0,178.9,47.6Z"/><path class="cls-5" d="M182.3,40.7h1.4V38.8l2.3-.5v2.4h2.3v1.7H186v4.7c0,1.1.5,1.5,1.6,1.5h.7v1.8h-1.1c-2.6,0-3.5-1.1-3.5-3.3V42.4h-1.4Z"/><path class="cls-5" d="M189.1,45.6c0-3.1,1.8-5.1,4.5-5.1s4.4,2.1,4,5.5h-6.2c.1,1.7,1,2.6,2.3,2.6a2.5,2.5,0,0,0,2-1.3l1.8,1a4,4,0,0,1-3.8,2.3C190.8,50.6,189.1,48.7,189.1,45.6Zm2.4-1.1h3.9c-.1-1.3-.8-2-1.9-2A2.1,2.1,0,0,0,191.5,44.5Z"/><path class="cls-6" d="M82.9,23.4c-2.7,0-4.2.6-4.2,1.7s.4,1,1.2,1.3,3.6.3,6.2.7,4.8,1.5,4.8,3.7-2.5,4.4-7.1,4.4S77.9,34.5,76,33l1.2-1.6a12.1,12.1,0,0,0,6.6,1.9c3.1,0,4.8-.9,4.8-2.3s-2.2-1.9-6.1-2.2-6.1-.9-6.1-3.4,2.4-4,6.6-4a12.2,12.2,0,0,1,7.1,2l-1.3,1.4A12.5,12.5,0,0,0,82.9,23.4Z"/><path class="cls-6" d="M101.6,29.7v5.2H99.4V29.7l-7.2-7.9h2.7l5.6,6.1,5.6-6.1h2.7Z"/><path class="cls-6" d="M117,23.4c-2.7,0-4.2.6-4.2,1.7s.4,1,1.2,1.3,3.6.3,6.2.7,4.8,1.5,4.8,3.7-2.5,4.4-7.1,4.4-5.9-.7-7.8-2.2l1.2-1.6a12.1,12.1,0,0,0,6.6,1.9c3.1,0,4.8-.9,4.8-2.3s-2.2-1.9-6.1-2.2-6.1-.9-6.1-3.4,2.4-4,6.6-4a12.2,12.2,0,0,1,7.1,2l-1.3,1.4A12.5,12.5,0,0,0,117,23.4Z"/><path class="cls-6" d="M135.1,23.7V34.9h-2.2V23.7h-6.3V21.8h14.7v1.9Z"/><path class="cls-6" d="M157,34.9l-3.6-5h-6.6v5h-2.2V21.8H155c2.7,0,4.4,1.6,4.4,4.1a3.8,3.8,0,0,1-3.4,3.9l3.5,5.1Zm.2-9c0-1.5-.9-2.2-2.8-2.2h-7.6v4.2h7.8C156.3,27.9,157.2,27.2,157.2,25.9Z"/><path class="cls-6" d="M176.3,34.9l-1.5-3H166l-1.6,3h-2.3L169,21.8h2.7l7,13.1Zm-5.9-11.3L167,30h6.7Z"/><path class="cls-6" d="M194.1,34.9,184,24.1V34.9h-2.1V21.8h2.7l10,10.7V21.8h2.2V34.9Z"/></g></g></svg>